<?xml version="1.0" encoding="utf-8"?>
<!-- Generator: Adobe Illustrator 27.7.0, SVG Export Plug-In . SVG Version: 6.00 Build 0)  -->
<svg version="1.1" id="Layer_1" xmlns="http://www.w3.org/2000/svg" xmlns:xlink="http://www.w3.org/1999/xlink" x="0px" y="0px"
	 viewBox="0 0 33 32" style="enable-background:new 0 0 33 32;" xml:space="preserve">
<style type="text/css">
	.st0{fill:#2189FF;stroke:#2189FF;stroke-width:0.5;}
</style>
<path class="st0" d="M32.3,5.1c0.9,3-0.9,6.1-3.8,6.9l0,2.9c0,0.2-0.1,0.3-0.2,0.4L11.9,31.5c-0.2,0.2-0.6,0.2-0.8,0L1.2,21.4
	c-0.2-0.2-0.2-0.6,0-0.8l5.3-5.1l5.7-5.5l5.5-5.2c0.1-0.1,0.3-0.2,0.4-0.2l3.5,0c0.6-1.6,1.9-2.9,3.7-3.4
	C28.3,0.4,31.4,2.1,32.3,5.1z M27.3,5.8l-4.9,0c-0.1,0.6-0.1,1.3,0.1,2c0.1,0,0.3,0,0.4,0c1.3,0,2.4,1.1,2.4,2.4s-1.1,2.4-2.4,2.4
	c-1.3,0-2.4-1.1-2.4-2.4c0-0.8,0.4-1.4,0.9-1.9c0,0,0,0,0-0.1c-0.2-0.8-0.3-1.6-0.2-2.4l-2.9,0l-5.3,5l-5.7,5.5L2.4,21l9.1,9.2
	l15.8-15.6L27.3,5.8z M14,20c1.1,0,2,0.9,2,2s-0.9,2-2,2s-2-0.9-2-2S12.9,20,14,20z M14,21.1c-0.5,0-0.9,0.4-0.9,0.9
	s0.4,0.9,0.9,0.9s0.9-0.4,0.9-0.9S14.5,21.1,14,21.1z M20,17.6c0.1,0.4-0.2,0.7-0.5,0.8L9.7,20C9.4,20,9.1,19.8,9,19.4
	c-0.1-0.4,0.2-0.7,0.5-0.8l9.7-1.6C19.6,17,19.9,17.2,20,17.6z M15,13c1.1,0,2,0.9,2,2s-0.9,2-2,2s-2-0.9-2-2S13.9,13,15,13z
	 M15,14.1c-0.5,0-0.9,0.4-0.9,0.9s0.4,0.9,0.9,0.9s0.9-0.4,0.9-0.9S15.5,14.1,15,14.1z M22.9,8.9c-0.7,0-1.2,0.5-1.2,1.2
	s0.6,1.2,1.2,1.2c0.7,0,1.2-0.5,1.2-1.2S23.6,8.9,22.9,8.9z M25.6,2.3c-1.3,0.4-2.2,1.2-2.8,2.3l5.1,0c0.3,0,0.6,0.3,0.6,0.6
	l-0.1,5.6c2.1-0.8,3.3-3.1,2.7-5.4C30.5,3,28,1.7,25.6,2.3z"/>
</svg>
