<?xml version="1.0" encoding="UTF-8"?>
<svg width="28px" height="28px" viewBox="0 0 28 28" version="1.1" xmlns="http://www.w3.org/2000/svg" xmlns:xlink="http://www.w3.org/1999/xlink">
    <title>Frame 2147223846</title>
    <defs>
        <rect id="path-1" x="0" y="0" width="28" height="28"></rect>
    </defs>
    <g id="Cart-+-Checkout" stroke="none" stroke-width="1" fill="none" fill-rule="evenodd" opacity="0.99">
        <g id="PC_VIP-cart_Updated" transform="translate(-973, -988)">
            <g id="VIP-Advantage" transform="translate(973, 988)">
                <mask id="mask-2" fill="white">
                    <use xlink:href="#path-1"></use>
                </mask>
                <g id="Clip" fill-rule="nonzero"></g>
                <g id="VIP-icon" mask="url(#mask-2)" fill-rule="nonzero">
                    <g transform="translate(1.1667, 1.1667)">
                        <circle id="Oval" fill="#000000" cx="12.8333333" cy="12.8333333" r="12.8333333"></circle>
                        <path d="M12.4190722,6.78969019 C11.6102884,10.8331213 8.36243903,12.0609669 7.4120935,12.3369999 C7.31185124,12.3612047 7.21014201,12.3841872 7.10623234,12.4049692 C6.41496823,12.520207 6.06933618,12.6642135 6.06933618,12.8369888 C6.06933618,13.0097642 6.41496823,13.1536893 7.10623234,13.2687643 C7.21014201,13.2895462 7.31185124,13.3127727 7.4120935,13.3367331 C8.36243903,13.6130105 11.6102884,14.8408566 12.4190722,18.8842878 C12.53431,19.5753888 12.6783166,19.9209394 12.8510919,19.9209394 C13.0238671,19.9209394 13.1677923,19.5753888 13.2828672,18.8842878 C14.0916511,14.8408566 17.3395007,13.6130105 18.2898462,13.3367331 C18.390333,13.3127727 18.4917972,13.2895462 18.5959513,13.2687643 C19.2870523,13.1536893 19.6326028,13.0097642 19.6326028,12.8369888 C19.6326028,12.6642135 19.2870523,12.520207 18.5959513,12.4049692 C18.4917972,12.3841872 18.390333,12.3612047 18.2898462,12.3369999 C17.3395007,12.0609669 14.0916511,10.8331213 13.2828672,6.78969019 C13.1677923,6.09858895 13.0238671,5.75303833 12.8510919,5.75303833 C12.6783166,5.75303833 12.53431,6.09858895 12.4190722,6.78969019" id="Fill-4" fill="#FFFFFF"></path>
                    </g>
                </g>
            </g>
        </g>
    </g>
</svg>